{"glyphs":{"0":{"ha":1432,"x_min":54,"x_max":1356,"o":"m 445 911 l 445 1042 l 1096 1042 l 1096 911 l 1226 911 l 1226 651 l 1356 651 l 1356 -130 l 1226 -130 l 1226 -391 l 1096 -391 l 1096 -521 l 315 -521 l 315 -391 l 184 -391 l 184 -130 l 54 -130 l 54 521 l 184 521 l 184 781 l 315 781 l 315 911 l 445 911 m 836 651 l 705 651 l 705 521 l 575 521 l 575 130 l 705 130 l 705 0 l 836 0 l 836 130 l 966 130 l 966 521 l 836 521 l 836 651 z "},"1":{"ha":911,"x_min":54,"x_max":836,"o":"m 184 911 l 184 1042 l 705 1042 l 705 911 l 836 911 l 836 -391 l 705 -391 l 705 -521 l 445 -521 l 445 -391 l 315 -391 l 315 521 l 184 521 l 184 651 l 54 651 l 54 911 l 184 911 z "},"2":{"ha":1302,"x_min":54,"x_max":1226,"o":"m 184 911 l 184 1042 l 966 1042 l 966 911 l 1096 911 l 1096 260 l 966 260 l 966 130 l 836 130 l 836 0 l 705 0 l 705 -130 l 836 -130 l 836 0 l 1096 0 l 1096 -130 l 1226 -130 l 1226 -391 l 1096 -391 l 1096 -521 l 54 -521 l 54 -130 l 184 -130 l 184 130 l 315 130 l 315 260 l 445 260 l 445 391 l 575 391 l 575 651 l 445 651 l 445 521 l 184 521 l 184 651 l 54 651 l 54 911 l 184 911 z "},"3":{"ha":1432,"x_min":54,"x_max":1356,"o":"m 315 911 l 315 1042 l 1096 1042 l 1096 911 l 1226 911 l 1226 391 l 1096 391 l 1096 260 l 1226 260 l 1226 130 l 1356 130 l 1356 -260 l 1226 -260 l 1226 -391 l 1096 -391 l 1096 -521 l 445 -521 l 445 -391 l 184 -391 l 184 -260 l 54 -260 l 54 -130 l 184 -130 l 184 0 l 315 0 l 315 130 l 575 130 l 575 0 l 705 0 l 705 260 l 575 260 l 575 391 l 705 391 l 705 651 l 575 651 l 575 521 l 315 521 l 315 651 l 184 651 l 184 911 l 315 911 z "},"4":{"ha":1432,"x_min":54,"x_max":1356,"o":"m 315 911 l 315 1042 l 575 1042 l 575 911 l 705 911 l 705 651 l 575 651 l 575 391 l 836 391 l 836 911 l 966 911 l 966 1042 l 1226 1042 l 1226 911 l 1356 911 l 1356 260 l 1226 260 l 1226 -391 l 1096 -391 l 1096 -521 l 836 -521 l 836 -391 l 705 -391 l 705 -130 l 445 -130 l 445 0 l 184 0 l 184 130 l 54 130 l 54 521 l 184 521 l 184 911 l 315 911 z "},"5":{"ha":1302,"x_min":54,"x_max":1226,"o":"m 315 911 l 315 1042 l 1096 1042 l 1096 781 l 966 781 l 966 651 l 575 651 l 575 521 l 966 521 l 966 391 l 1096 391 l 1096 260 l 1226 260 l 1226 -260 l 1096 -260 l 1096 -391 l 966 -391 l 966 -521 l 184 -521 l 184 -391 l 54 -391 l 54 -130 l 184 -130 l 184 0 l 315 0 l 315 130 l 575 130 l 575 0 l 705 0 l 705 130 l 575 130 l 575 260 l 184 260 l 184 911 l 315 911 z "},"6":{"ha":1302,"x_min":54,"x_max":1226,"o":"m 445 911 l 445 1042 l 836 1042 l 836 911 l 966 911 l 966 651 l 836 651 l 836 521 l 966 521 l 966 391 l 1096 391 l 1096 260 l 1226 260 l 1226 -260 l 1096 -260 l 1096 -391 l 966 -391 l 966 -521 l 315 -521 l 315 -391 l 184 -391 l 184 -260 l 54 -260 l 54 391 l 184 391 l 184 651 l 315 651 l 315 911 l 445 911 m 705 130 l 445 130 l 445 -130 l 705 -130 l 705 130 z "},"7":{"ha":1302,"x_min":54,"x_max":1226,"o":"m 184 911 l 184 1042 l 1096 1042 l 1096 911 l 1226 911 l 1226 391 l 1096 391 l 1096 0 l 966 0 l 966 -391 l 836 -391 l 836 -521 l 445 -521 l 445 -391 l 315 -391 l 315 -130 l 445 -130 l 445 130 l 575 130 l 575 391 l 705 391 l 705 651 l 575 651 l 575 521 l 184 521 l 184 651 l 54 651 l 54 911 l 184 911 z "},"8":{"ha":1432,"x_min":54,"x_max":1356,"o":"m 315 911 l 315 1042 l 1096 1042 l 1096 911 l 1226 911 l 1226 391 l 1096 391 l 1096 260 l 1226 260 l 1226 130 l 1356 130 l 1356 -391 l 1226 -391 l 1226 -521 l 184 -521 l 184 -391 l 54 -391 l 54 130 l 184 130 l 184 260 l 315 260 l 315 391 l 184 391 l 184 911 l 315 911 m 836 651 l 575 651 l 575 521 l 836 521 l 836 651 m 836 130 l 575 130 l 575 0 l 836 0 l 836 130 z "},"9":{"ha":1302,"x_min":54,"x_max":1226,"o":"m 315 911 l 315 1042 l 966 1042 l 966 911 l 1096 911 l 1096 781 l 1226 781 l 1226 0 l 1096 0 l 1096 -260 l 966 -260 l 966 -391 l 836 -391 l 836 -521 l 445 -521 l 445 -391 l 315 -391 l 315 -130 l 445 -130 l 445 0 l 315 0 l 315 130 l 184 130 l 184 260 l 54 260 l 54 781 l 184 781 l 184 911 l 315 911 m 836 651 l 575 651 l 575 391 l 836 391 l 836 651 z "},"\u0000":{"ha":618,"x_min":54,"x_max":620,"o":"m 54 916 l 620 916 l 620 0 l 54 0 l 54 916 m 119 65 l 553 65 l 553 850 l 119 850 l 119 65 z "}," ":{"ha":391,"x_min":0,"x_max":0,"o":"m 0 0 z "},"!":{"ha":651,"x_min":54,"x_max":575,"o":"m 184 1042 l 184 1172 l 445 1172 l 445 1042 l 575 1042 l 575 391 l 445 391 l 445 0 l 184 0 l 184 391 l 54 391 l 54 1042 l 184 1042 m 184 -260 l 184 -130 l 445 -130 l 445 -260 l 575 -260 l 575 -521 l 445 -521 l 445 -651 l 184 -651 l 184 -521 l 54 -521 l 54 -260 l 184 -260 z "},"\"":{"ha":781,"x_min":54,"x_max":705,"o":"m 54 651 l 54 1172 l 315 1172 l 315 781 l 184 781 l 184 651 l 54 651 m 445 651 l 445 1172 l 705 1172 l 705 781 l 575 781 l 575 651 l 445 651 z "},"#":{"ha":1953,"x_min":54,"x_max":1877,"o":"m 575 781 l 575 1042 l 966 1042 l 966 781 l 1226 781 l 1226 1042 l 1617 1042 l 1617 781 l 1877 781 l 1877 521 l 1747 521 l 1747 391 l 1487 391 l 1487 130 l 1747 130 l 1747 -130 l 1617 -130 l 1617 -260 l 1356 -260 l 1356 -521 l 966 -521 l 966 -260 l 705 -260 l 705 -521 l 315 -521 l 315 -260 l 54 -260 l 54 0 l 184 0 l 184 130 l 445 130 l 445 391 l 184 391 l 184 651 l 315 651 l 315 781 l 575 781 m 1096 391 l 836 391 l 836 130 l 1096 130 l 1096 391 z "},"$":{"ha":1432,"x_min":54,"x_max":1356,"o":"m 575 1042 l 575 1172 l 836 1172 l 836 1042 l 1096 1042 l 1096 911 l 1226 911 l 1226 781 l 1356 781 l 1356 521 l 966 521 l 966 651 l 836 651 l 836 391 l 1096 391 l 1096 260 l 1226 260 l 1226 130 l 1356 130 l 1356 -260 l 1226 -260 l 1226 -391 l 1096 -391 l 1096 -521 l 836 -521 l 836 -651 l 575 -651 l 575 -521 l 315 -521 l 315 -391 l 184 -391 l 184 -260 l 54 -260 l 54 0 l 445 0 l 445 -130 l 575 -130 l 575 130 l 315 130 l 315 260 l 184 260 l 184 391 l 54 391 l 54 781 l 184 781 l 184 911 l 315 911 l 315 1042 l 575 1042 m 575 651 l 445 651 l 445 521 l 575 521 l 575 651 m 966 0 l 836 0 l 836 -130 l 966 -130 l 966 0 z "},"%":{"ha":1693,"x_min":54,"x_max":1617,"o":"m 836 781 l 836 1042 l 1096 1042 l 1096 911 l 1226 911 l 1226 651 l 1096 651 l 1096 260 l 966 260 l 966 -260 l 836 -260 l 836 -521 l 575 -521 l 575 -391 l 445 -391 l 445 -130 l 575 -130 l 575 260 l 705 260 l 705 781 l 836 781 m 184 781 l 184 911 l 445 911 l 445 781 l 575 781 l 575 521 l 445 521 l 445 391 l 184 391 l 184 521 l 54 521 l 54 781 l 184 781 m 1226 0 l 1226 130 l 1487 130 l 1487 0 l 1617 0 l 1617 -260 l 1487 -260 l 1487 -391 l 1226 -391 l 1226 -260 l 1096 -260 l 1096 0 l 1226 0 z "},"&":{"ha":1432,"x_min":54,"x_max":1356,"o":"m 315 911 l 315 1042 l 705 1042 l 705 911 l 836 911 l 836 521 l 705 521 l 705 391 l 836 391 l 836 260 l 966 260 l 966 391 l 1096 391 l 1096 260 l 1226 260 l 1226 0 l 1096 0 l 1096 -130 l 1226 -130 l 1226 -260 l 1356 -260 l 1356 -391 l 1226 -391 l 1226 -521 l 1096 -521 l 1096 -391 l 836 -391 l 836 -521 l 184 -521 l 184 -391 l 54 -391 l 54 260 l 184 260 l 184 391 l 315 391 l 315 521 l 184 521 l 184 911 l 315 911 m 575 781 l 445 781 l 445 651 l 575 651 l 575 781 m 575 130 l 445 130 l 445 -130 l 705 -130 l 705 0 l 575 0 l 575 130 z "},"'":{"ha":391,"x_min":54,"x_max":315,"o":"m 54 651 l 54 1172 l 315 1172 l 315 781 l 184 781 l 184 651 l 54 651 z "},"(":{"ha":781,"x_min":54,"x_max":705,"o":"m 445 1042 l 445 1172 l 705 1172 l 705 1042 l 575 1042 l 575 781 l 445 781 l 445 -260 l 575 -260 l 575 -521 l 705 -521 l 705 -651 l 445 -651 l 445 -521 l 315 -521 l 315 -391 l 184 -391 l 184 -130 l 54 -130 l 54 651 l 184 651 l 184 911 l 315 911 l 315 1042 l 445 1042 z "},")":{"ha":781,"x_min":54,"x_max":705,"o":"m 54 1042 l 54 1172 l 315 1172 l 315 1042 l 445 1042 l 445 911 l 575 911 l 575 651 l 705 651 l 705 -130 l 575 -130 l 575 -391 l 445 -391 l 445 -521 l 315 -521 l 315 -651 l 54 -651 l 54 -521 l 184 -521 l 184 -260 l 315 -260 l 315 781 l 184 781 l 184 1042 l 54 1042 z "},"*":{"ha":1172,"x_min":54,"x_max":1096,"o":"m 445 911 l 445 1172 l 705 1172 l 705 911 l 836 911 l 836 1042 l 966 1042 l 966 911 l 1096 911 l 1096 781 l 966 781 l 966 651 l 836 651 l 836 521 l 966 521 l 966 391 l 836 391 l 836 260 l 705 260 l 705 391 l 445 391 l 445 260 l 315 260 l 315 391 l 184 391 l 184 521 l 315 521 l 315 651 l 184 651 l 184 781 l 54 781 l 54 911 l 184 911 l 184 1042 l 315 1042 l 315 911 l 445 911 z "},"+":{"ha":1432,"x_min":54,"x_max":1356,"o":"m 575 781 l 575 911 l 836 911 l 836 781 l 966 781 l 966 521 l 1226 521 l 1226 391 l 1356 391 l 1356 130 l 1226 130 l 1226 0 l 966 0 l 966 -260 l 836 -260 l 836 -391 l 575 -391 l 575 -260 l 445 -260 l 445 0 l 184 0 l 184 130 l 54 130 l 54 391 l 184 391 l 184 521 l 445 521 l 445 781 l 575 781 z "},",":{"ha":651,"x_min":54,"x_max":575,"o":"m 184 -130 l 184 0 l 445 0 l 445 -130 l 575 -130 l 575 -521 l 445 -521 l 445 -651 l 54 -651 l 54 -521 l 184 -521 l 184 -391 l 54 -391 l 54 -130 l 184 -130 z "},"-":{"ha":1302,"x_min":54,"x_max":1226,"o":"m 184 391 l 184 521 l 1096 521 l 1096 391 l 1226 391 l 1226 130 l 1096 130 l 1096 0 l 184 0 l 184 130 l 54 130 l 54 391 l 184 391 z "},".":{"ha":651,"x_min":54,"x_max":575,"o":"m 184 -130 l 184 0 l 445 0 l 445 -130 l 575 -130 l 575 -391 l 445 -391 l 445 -521 l 184 -521 l 184 -391 l 54 -391 l 54 -130 l 184 -130 z "},"/":{"ha":911,"x_min":54,"x_max":836,"o":"m 445 781 l 445 1042 l 705 1042 l 705 911 l 836 911 l 836 651 l 705 651 l 705 260 l 575 260 l 575 -260 l 445 -260 l 445 -521 l 184 -521 l 184 -391 l 54 -391 l 54 -130 l 184 -130 l 184 260 l 315 260 l 315 781 l 445 781 z "},":":{"ha":651,"x_min":54,"x_max":575,"o":"m 184 651 l 184 781 l 445 781 l 445 651 l 575 651 l 575 391 l 445 391 l 445 260 l 184 260 l 184 391 l 54 391 l 54 651 l 184 651 m 184 -130 l 184 0 l 445 0 l 445 -130 l 575 -130 l 575 -391 l 445 -391 l 445 -521 l 184 -521 l 184 -391 l 54 -391 l 54 -130 l 184 -130 z "},";":{"ha":651,"x_min":54,"x_max":575,"o":"m 184 651 l 184 781 l 445 781 l 445 651 l 575 651 l 575 391 l 445 391 l 445 260 l 184 260 l 184 391 l 54 391 l 54 651 l 184 651 m 184 -130 l 184 0 l 445 0 l 445 -130 l 575 -130 l 575 -521 l 445 -521 l 445 -651 l 54 -651 l 54 -521 l 184 -521 l 184 -391 l 54 -391 l 54 -130 l 184 -130 z "},"<":{"ha":911,"x_min":54,"x_max":836,"o":"m 445 651 l 445 781 l 705 781 l 705 651 l 836 651 l 836 391 l 705 391 l 705 260 l 575 260 l 575 130 l 705 130 l 705 0 l 836 0 l 836 -260 l 705 -260 l 705 -391 l 445 -391 l 445 -260 l 315 -260 l 315 -130 l 184 -130 l 184 0 l 54 0 l 54 391 l 184 391 l 184 521 l 315 521 l 315 651 l 445 651 z "},"=":{"ha":1302,"x_min":54,"x_max":1226,"o":"m 184 651 l 184 781 l 1096 781 l 1096 651 l 1226 651 l 1226 391 l 1096 391 l 1096 260 l 184 260 l 184 391 l 54 391 l 54 651 l 184 651 m 184 0 l 184 130 l 1096 130 l 1096 0 l 1226 0 l 1226 -260 l 1096 -260 l 1096 -391 l 184 -391 l 184 -260 l 54 -260 l 54 0 l 184 0 z "},">":{"ha":911,"x_min":54,"x_max":836,"o":"m 184 651 l 184 781 l 445 781 l 445 651 l 575 651 l 575 521 l 705 521 l 705 391 l 836 391 l 836 0 l 705 0 l 705 -130 l 575 -130 l 575 -260 l 445 -260 l 445 -391 l 184 -391 l 184 -260 l 54 -260 l 54 0 l 184 0 l 184 130 l 315 130 l 315 260 l 184 260 l 184 391 l 54 391 l 54 651 l 184 651 z "},"?":{"ha":1302,"x_min":54,"x_max":1226,"o":"m 184 1042 l 184 1172 l 1096 1172 l 1096 1042 l 1226 1042 l 1226 391 l 1096 391 l 1096 260 l 966 260 l 966 130 l 705 130 l 705 0 l 445 0 l 445 260 l 575 260 l 575 521 l 705 521 l 705 781 l 575 781 l 575 651 l 445 651 l 445 521 l 184 521 l 184 651 l 54 651 l 54 1042 l 184 1042 m 445 -260 l 445 -130 l 705 -130 l 705 -260 l 836 -260 l 836 -521 l 705 -521 l 705 -651 l 445 -651 l 445 -521 l 315 -521 l 315 -260 l 445 -260 z "},"@":{"ha":1693,"x_min":54,"x_max":1617,"o":"m 315 911 l 315 1042 l 1356 1042 l 1356 911 l 1487 911 l 1487 781 l 1617 781 l 1617 -130 l 1487 -130 l 1487 -260 l 1096 -260 l 1096 -130 l 575 -130 l 575 0 l 445 0 l 445 521 l 575 521 l 575 651 l 966 651 l 966 521 l 1096 521 l 1096 651 l 1226 651 l 1226 0 l 1356 0 l 1356 651 l 1226 651 l 1226 781 l 445 781 l 445 651 l 315 651 l 315 -130 l 445 -130 l 445 -260 l 836 -260 l 836 -521 l 315 -521 l 315 -391 l 184 -391 l 184 -260 l 54 -260 l 54 781 l 184 781 l 184 911 l 315 911 m 966 391 l 705 391 l 705 130 l 966 130 l 966 391 z "},"A":{"ha":1563,"x_min":54,"x_max":1487,"o":"m 705 911 l 705 1042 l 1226 1042 l 1226 911 l 1356 911 l 1356 651 l 1487 651 l 1487 -391 l 1356 -391 l 1356 -521 l 1096 -521 l 1096 -391 l 966 -391 l 966 -260 l 836 -260 l 836 -130 l 575 -130 l 575 -260 l 445 -260 l 445 -391 l 184 -391 l 184 -260 l 54 -260 l 54 130 l 184 130 l 184 391 l 315 391 l 315 651 l 445 651 l 445 781 l 575 781 l 575 911 l 705 911 m 1096 521 l 836 521 l 836 391 l 705 391 l 705 260 l 966 260 l 966 130 l 1096 130 l 1096 521 z "},"B":{"ha":1563,"x_min":54,"x_max":1487,"o":"m 445 911 l 445 1042 l 966 1042 l 966 911 l 1226 911 l 1226 781 l 1356 781 l 1356 391 l 1226 391 l 1226 260 l 1356 260 l 1356 130 l 1487 130 l 1487 -391 l 1226 -391 l 1226 -521 l 184 -521 l 184 -391 l 54 -391 l 54 260 l 184 260 l 184 651 l 315 651 l 315 911 l 445 911 m 836 651 l 705 651 l 705 521 l 575 521 l 575 391 l 836 391 l 836 651 m 836 130 l 575 130 l 575 -130 l 836 -130 l 836 130 z "},"C":{"ha":1432,"x_min":54,"x_max":1356,"o":"m 575 911 l 575 1042 l 1096 1042 l 1096 911 l 1226 911 l 1226 651 l 1096 651 l 1096 521 l 705 521 l 705 391 l 575 391 l 575 130 l 705 130 l 705 0 l 966 0 l 966 130 l 1226 130 l 1226 0 l 1356 0 l 1356 -391 l 1096 -391 l 1096 -521 l 575 -521 l 575 -391 l 315 -391 l 315 -260 l 184 -260 l 184 0 l 54 0 l 54 521 l 184 521 l 184 781 l 315 781 l 315 911 l 575 911 z "},"D":{"ha":1563,"x_min":54,"x_max":1487,"o":"m 184 911 l 184 1042 l 966 1042 l 966 911 l 1226 911 l 1226 781 l 1356 781 l 1356 521 l 1487 521 l 1487 -260 l 1356 -260 l 1356 -391 l 1226 -391 l 1226 -521 l 184 -521 l 184 0 l 54 0 l 54 911 l 184 911 m 836 521 l 575 521 l 575 130 l 705 130 l 705 0 l 836 0 l 836 130 l 966 130 l 966 391 l 836 391 l 836 521 z "},"E":{"ha":1432,"x_min":54,"x_max":1356,"o":"m 445 911 l 445 1042 l 1226 1042 l 1226 911 l 1356 911 l 1356 651 l 1226 651 l 1226 521 l 705 521 l 705 391 l 1096 391 l 1096 130 l 966 130 l 966 0 l 575 0 l 575 -130 l 1226 -130 l 1226 -391 l 1096 -391 l 1096 -521 l 184 -521 l 184 -391 l 54 -391 l 54 260 l 184 260 l 184 651 l 315 651 l 315 911 l 445 911 z "},"F":{"ha":1302,"x_min":54,"x_max":1226,"o":"m 315 911 l 315 1042 l 1096 1042 l 1096 911 l 1226 911 l 1226 651 l 1096 651 l 1096 521 l 705 521 l 705 391 l 1096 391 l 1096 130 l 966 130 l 966 0 l 575 0 l 575 -391 l 445 -391 l 445 -521 l 184 -521 l 184 -391 l 54 -391 l 54 521 l 184 521 l 184 911 l 315 911 z "},"G":{"ha":1563,"x_min":54,"x_max":1487,"o":"m 575 911 l 575 1042 l 1226 1042 l 1226 911 l 1356 911 l 1356 651 l 1226 651 l 1226 521 l 705 521 l 705 391 l 575 391 l 575 0 l 705 0 l 705 -130 l 966 -130 l 966 0 l 705 0 l 705 260 l 836 260 l 836 391 l 1356 391 l 1356 260 l 1487 260 l 1487 -130 l 1356 -130 l 1356 -391 l 1096 -391 l 1096 -521 l 445 -521 l 445 -391 l 184 -391 l 184 -130 l 54 -130 l 54 521 l 184 521 l 184 781 l 315 781 l 315 911 l 575 911 z "},"H":{"ha":1563,"x_min":54,"x_max":1487,"o":"m 184 911 l 184 1042 l 445 1042 l 445 911 l 575 911 l 575 521 l 836 521 l 836 911 l 966 911 l 966 1042 l 1226 1042 l 1226 781 l 1356 781 l 1356 260 l 1487 260 l 1487 -391 l 1356 -391 l 1356 -521 l 1096 -521 l 1096 -391 l 966 -391 l 966 0 l 575 0 l 575 -391 l 445 -391 l 445 -521 l 184 -521 l 184 -391 l 54 -391 l 54 911 l 184 911 z "},"I":{"ha":781,"x_min":54,"x_max":705,"o":"m 184 911 l 184 1042 l 445 1042 l 445 911 l 575 911 l 575 130 l 705 130 l 705 -391 l 575 -391 l 575 -521 l 184 -521 l 184 -391 l 54 -391 l 54 911 l 184 911 z "},"J":{"ha":1172,"x_min":54,"x_max":1096,"o":"m 445 911 l 445 1042 l 836 1042 l 836 781 l 966 781 l 966 521 l 1096 521 l 1096 -260 l 966 -260 l 966 -391 l 836 -391 l 836 -521 l 184 -521 l 184 -391 l 54 -391 l 54 0 l 184 0 l 184 130 l 445 130 l 445 0 l 575 0 l 575 391 l 445 391 l 445 651 l 315 651 l 315 911 l 445 911 z "},"K":{"ha":1432,"x_min":54,"x_max":1356,"o":"m 184 911 l 184 1042 l 445 1042 l 445 911 l 575 911 l 575 521 l 705 521 l 705 781 l 836 781 l 836 1042 l 1226 1042 l 1226 911 l 1356 911 l 1356 651 l 1226 651 l 1226 391 l 1096 391 l 1096 260 l 1226 260 l 1226 0 l 1356 0 l 1356 -391 l 1226 -391 l 1226 -521 l 966 -521 l 966 -391 l 836 -391 l 836 -130 l 705 -130 l 705 -391 l 575 -391 l 575 -521 l 315 -521 l 315 -391 l 184 -391 l 184 260 l 54 260 l 54 911 l 184 911 z "},"L":{"ha":1042,"x_min":54,"x_max":966,"o":"m 445 911 l 445 1042 l 705 1042 l 705 911 l 836 911 l 836 521 l 705 521 l 705 260 l 575 260 l 575 0 l 836 0 l 836 -130 l 966 -130 l 966 -391 l 836 -391 l 836 -521 l 184 -521 l 184 -391 l 54 -391 l 54 260 l 184 260 l 184 651 l 315 651 l 315 911 l 445 911 z "},"M":{"ha":1823,"x_min":54,"x_max":1747,"o":"m 315 911 l 315 1042 l 705 1042 l 705 911 l 836 911 l 836 781 l 966 781 l 966 911 l 1096 911 l 1096 1042 l 1356 1042 l 1356 911 l 1487 911 l 1487 651 l 1617 651 l 1617 130 l 1747 130 l 1747 -391 l 1617 -391 l 1617 -521 l 1356 -521 l 1356 -391 l 1226 -391 l 1226 260 l 1096 260 l 1096 130 l 836 130 l 836 260 l 705 260 l 705 391 l 575 391 l 575 0 l 705 0 l 705 -391 l 575 -391 l 575 -521 l 184 -521 l 184 -391 l 54 -391 l 54 391 l 184 391 l 184 911 l 315 911 z "},"N":{"ha":1693,"x_min":54,"x_max":1617,"o":"m 315 911 l 315 1042 l 705 1042 l 705 911 l 836 911 l 836 651 l 966 651 l 966 260 l 1096 260 l 1096 911 l 1226 911 l 1226 1042 l 1487 1042 l 1487 911 l 1617 911 l 1617 130 l 1487 130 l 1487 -391 l 1356 -391 l 1356 -521 l 966 -521 l 966 -391 l 836 -391 l 836 -130 l 705 -130 l 705 260 l 575 260 l 575 -391 l 445 -391 l 445 -521 l 184 -521 l 184 -391 l 54 -391 l 54 391 l 184 391 l 184 911 l 315 911 z "},"O":{"ha":1563,"x_min":54,"x_max":1487,"o":"m 575 911 l 575 1042 l 966 1042 l 966 911 l 1226 911 l 1226 781 l 1356 781 l 1356 521 l 1487 521 l 1487 -130 l 1356 -130 l 1356 -391 l 1096 -391 l 1096 -521 l 445 -521 l 445 -391 l 184 -391 l 184 -130 l 54 -130 l 54 521 l 184 521 l 184 781 l 315 781 l 315 911 l 575 911 m 836 651 l 575 651 l 575 521 l 445 521 l 445 260 l 575 260 l 575 130 l 836 130 l 836 260 l 966 260 l 966 521 l 836 521 l 836 651 z "},"P":{"ha":1432,"x_min":54,"x_max":1356,"o":"m 184 911 l 184 1042 l 836 1042 l 836 911 l 1096 911 l 1096 781 l 1226 781 l 1226 521 l 1356 521 l 1356 130 l 1226 130 l 1226 0 l 1096 0 l 1096 -130 l 705 -130 l 705 -391 l 575 -391 l 575 -521 l 315 -521 l 315 -391 l 184 -391 l 184 0 l 54 0 l 54 911 l 184 911 m 705 651 l 445 651 l 445 391 l 575 391 l 575 260 l 836 260 l 836 521 l 705 521 l 705 651 z "},"Q":{"ha":1693,"x_min":54,"x_max":1617,"o":"m 705 911 l 705 1042 l 1226 1042 l 1226 911 l 1356 911 l 1356 781 l 1487 781 l 1487 130 l 1356 130 l 1356 0 l 1487 0 l 1487 -130 l 1617 -130 l 1617 -391 l 1487 -391 l 1487 -521 l 1226 -521 l 1226 -391 l 966 -391 l 966 -521 l 445 -521 l 445 -391 l 184 -391 l 184 -260 l 54 -260 l 54 391 l 184 391 l 184 651 l 315 651 l 315 781 l 445 781 l 445 911 l 705 911 m 1096 651 l 836 651 l 836 521 l 705 521 l 705 391 l 575 391 l 575 0 l 705 0 l 705 260 l 836 260 l 836 391 l 966 391 l 966 260 l 1096 260 l 1096 651 z "},"R":{"ha":1563,"x_min":54,"x_max":1487,"o":"m 445 911 l 445 1042 l 1226 1042 l 1226 911 l 1356 911 l 1356 781 l 1487 781 l 1487 260 l 1356 260 l 1356 130 l 1226 130 l 1226 0 l 1356 0 l 1356 -130 l 1487 -130 l 1487 -391 l 1356 -391 l 1356 -521 l 966 -521 l 966 -391 l 836 -391 l 836 -260 l 705 -260 l 705 -130 l 575 -130 l 575 -391 l 445 -391 l 445 -521 l 184 -521 l 184 -391 l 54 -391 l 54 260 l 184 260 l 184 651 l 315 651 l 315 911 l 445 911 m 966 651 l 705 651 l 705 521 l 575 521 l 575 260 l 836 260 l 836 391 l 966 391 l 966 651 z "},"S":{"ha":1432,"x_min":54,"x_max":1356,"o":"m 445 911 l 445 1042 l 1096 1042 l 1096 911 l 1226 911 l 1226 651 l 1096 651 l 1096 521 l 836 521 l 836 651 l 705 651 l 705 521 l 836 521 l 836 391 l 1096 391 l 1096 260 l 1226 260 l 1226 130 l 1356 130 l 1356 -260 l 1226 -260 l 1226 -391 l 966 -391 l 966 -521 l 184 -521 l 184 -391 l 54 -391 l 54 0 l 184 0 l 184 130 l 445 130 l 445 0 l 705 0 l 705 130 l 445 130 l 445 260 l 315 260 l 315 391 l 184 391 l 184 781 l 315 781 l 315 911 l 445 911 z "},"T":{"ha":1563,"x_min":54,"x_max":1487,"o":"m 445 911 l 445 1042 l 1356 1042 l 1356 911 l 1487 911 l 1487 651 l 1356 651 l 1356 521 l 1096 521 l 1096 0 l 1226 0 l 1226 -391 l 1096 -391 l 1096 -521 l 705 -521 l 705 -260 l 575 -260 l 575 391 l 445 391 l 445 260 l 184 260 l 184 391 l 54 391 l 54 781 l 184 781 l 184 911 l 445 911 z "},"U":{"ha":1563,"x_min":54,"x_max":1487,"o":"m 184 781 l 184 1042 l 575 1042 l 575 911 l 705 911 l 705 521 l 575 521 l 575 130 l 705 130 l 705 0 l 836 0 l 836 130 l 966 130 l 966 391 l 836 391 l 836 781 l 966 781 l 966 911 l 1226 911 l 1226 781 l 1356 781 l 1356 521 l 1487 521 l 1487 -130 l 1356 -130 l 1356 -391 l 1226 -391 l 1226 -521 l 315 -521 l 315 -391 l 184 -391 l 184 -130 l 54 -130 l 54 781 l 184 781 z "},"V":{"ha":1563,"x_min":54,"x_max":1487,"o":"m 184 911 l 184 1042 l 575 1042 l 575 911 l 705 911 l 705 130 l 836 130 l 836 521 l 966 521 l 966 781 l 1096 781 l 1096 911 l 1356 911 l 1356 781 l 1487 781 l 1487 260 l 1356 260 l 1356 0 l 1226 0 l 1226 -260 l 1096 -260 l 1096 -391 l 966 -391 l 966 -521 l 445 -521 l 445 -391 l 315 -391 l 315 -130 l 184 -130 l 184 391 l 54 391 l 54 911 l 184 911 z "},"W":{"ha":1693,"x_min":54,"x_max":1617,"o":"m 184 911 l 184 1042 l 445 1042 l 445 911 l 575 911 l 575 260 l 705 260 l 705 391 l 966 391 l 966 260 l 1096 260 l 1096 911 l 1226 911 l 1226 1042 l 1487 1042 l 1487 911 l 1617 911 l 1617 130 l 1487 130 l 1487 -260 l 1356 -260 l 1356 -391 l 1226 -391 l 1226 -521 l 966 -521 l 966 -391 l 705 -391 l 705 -521 l 445 -521 l 445 -391 l 315 -391 l 315 -130 l 184 -130 l 184 260 l 54 260 l 54 911 l 184 911 z "},"X":{"ha":1693,"x_min":54,"x_max":1617,"o":"m 315 911 l 315 1042 l 575 1042 l 575 911 l 705 911 l 705 781 l 966 781 l 966 911 l 1096 911 l 1096 1042 l 1356 1042 l 1356 911 l 1487 911 l 1487 651 l 1356 651 l 1356 521 l 1226 521 l 1226 391 l 1356 391 l 1356 260 l 1487 260 l 1487 0 l 1617 0 l 1617 -391 l 1487 -391 l 1487 -521 l 1226 -521 l 1226 -391 l 1096 -391 l 1096 -130 l 966 -130 l 966 0 l 705 0 l 705 -130 l 575 -130 l 575 -391 l 445 -391 l 445 -521 l 184 -521 l 184 -391 l 54 -391 l 54 0 l 184 0 l 184 260 l 315 260 l 315 391 l 445 391 l 445 521 l 315 521 l 315 651 l 184 651 l 184 911 l 315 911 z "},"Y":{"ha":1432,"x_min":54,"x_max":1356,"o":"m 966 911 l 966 1042 l 1226 1042 l 1226 911 l 1356 911 l 1356 391 l 1226 391 l 1226 130 l 1096 130 l 1096 -130 l 966 -130 l 966 -391 l 836 -391 l 836 -521 l 575 -521 l 575 -391 l 445 -391 l 445 0 l 575 0 l 575 130 l 445 130 l 445 260 l 315 260 l 315 391 l 184 391 l 184 521 l 54 521 l 54 781 l 184 781 l 184 911 l 575 911 l 575 781 l 705 781 l 705 651 l 836 651 l 836 911 l 966 911 z "},"Z":{"ha":1432,"x_min":54,"x_max":1356,"o":"m 315 911 l 315 1042 l 966 1042 l 966 911 l 1226 911 l 1226 521 l 1096 521 l 1096 260 l 966 260 l 966 130 l 836 130 l 836 0 l 1226 0 l 1226 -130 l 1356 -130 l 1356 -391 l 1226 -391 l 1226 -521 l 184 -521 l 184 -391 l 54 -391 l 54 -130 l 184 -130 l 184 130 l 315 130 l 315 260 l 445 260 l 445 391 l 575 391 l 575 521 l 315 521 l 315 651 l 184 651 l 184 911 l 315 911 z "},"\\":{"ha":911,"x_min":54,"x_max":836,"o":"m 184 911 l 184 1042 l 445 1042 l 445 781 l 575 781 l 575 260 l 705 260 l 705 -130 l 836 -130 l 836 -391 l 705 -391 l 705 -521 l 445 -521 l 445 -260 l 315 -260 l 315 260 l 184 260 l 184 651 l 54 651 l 54 911 l 184 911 z "},"_":{"ha":1432,"x_min":54,"x_max":1356,"o":"m 184 -130 l 184 0 l 1226 0 l 1226 -130 l 1356 -130 l 1356 -391 l 1226 -391 l 1226 -521 l 184 -521 l 184 -391 l 54 -391 l 54 -130 l 184 -130 z "},"a":{"ha":1563,"x_min":54,"x_max":1487,"o":"m 705 911 l 705 1042 l 1226 1042 l 1226 911 l 1356 911 l 1356 651 l 1487 651 l 1487 -391 l 1356 -391 l 1356 -521 l 1096 -521 l 1096 -391 l 966 -391 l 966 -260 l 836 -260 l 836 -130 l 575 -130 l 575 -260 l 445 -260 l 445 -391 l 184 -391 l 184 -260 l 54 -260 l 54 130 l 184 130 l 184 391 l 315 391 l 315 651 l 445 651 l 445 781 l 575 781 l 575 911 l 705 911 m 1096 521 l 836 521 l 836 391 l 705 391 l 705 260 l 966 260 l 966 130 l 1096 130 l 1096 521 z "},"b":{"ha":1563,"x_min":54,"x_max":1487,"o":"m 445 911 l 445 1042 l 966 1042 l 966 911 l 1226 911 l 1226 781 l 1356 781 l 1356 391 l 1226 391 l 1226 260 l 1356 260 l 1356 130 l 1487 130 l 1487 -391 l 1226 -391 l 1226 -521 l 184 -521 l 184 -391 l 54 -391 l 54 260 l 184 260 l 184 651 l 315 651 l 315 911 l 445 911 m 836 651 l 705 651 l 705 521 l 575 521 l 575 391 l 836 391 l 836 651 m 836 130 l 575 130 l 575 -130 l 836 -130 l 836 130 z "},"c":{"ha":1432,"x_min":54,"x_max":1356,"o":"m 575 911 l 575 1042 l 1096 1042 l 1096 911 l 1226 911 l 1226 651 l 1096 651 l 1096 521 l 705 521 l 705 391 l 575 391 l 575 130 l 705 130 l 705 0 l 966 0 l 966 130 l 1226 130 l 1226 0 l 1356 0 l 1356 -391 l 1096 -391 l 1096 -521 l 575 -521 l 575 -391 l 315 -391 l 315 -260 l 184 -260 l 184 0 l 54 0 l 54 521 l 184 521 l 184 781 l 315 781 l 315 911 l 575 911 z "},"d":{"ha":1563,"x_min":54,"x_max":1487,"o":"m 184 911 l 184 1042 l 966 1042 l 966 911 l 1226 911 l 1226 781 l 1356 781 l 1356 521 l 1487 521 l 1487 -260 l 1356 -260 l 1356 -391 l 1226 -391 l 1226 -521 l 184 -521 l 184 0 l 54 0 l 54 911 l 184 911 m 836 521 l 575 521 l 575 130 l 705 130 l 705 0 l 836 0 l 836 130 l 966 130 l 966 391 l 836 391 l 836 521 z "},"e":{"ha":1432,"x_min":54,"x_max":1356,"o":"m 445 911 l 445 1042 l 1226 1042 l 1226 911 l 1356 911 l 1356 651 l 1226 651 l 1226 521 l 705 521 l 705 391 l 1096 391 l 1096 130 l 966 130 l 966 0 l 575 0 l 575 -130 l 1226 -130 l 1226 -391 l 1096 -391 l 1096 -521 l 184 -521 l 184 -391 l 54 -391 l 54 260 l 184 260 l 184 651 l 315 651 l 315 911 l 445 911 z "},"f":{"ha":1302,"x_min":54,"x_max":1226,"o":"m 315 911 l 315 1042 l 1096 1042 l 1096 911 l 1226 911 l 1226 651 l 1096 651 l 1096 521 l 705 521 l 705 391 l 1096 391 l 1096 130 l 966 130 l 966 0 l 575 0 l 575 -391 l 445 -391 l 445 -521 l 184 -521 l 184 -391 l 54 -391 l 54 521 l 184 521 l 184 911 l 315 911 z "},"g":{"ha":1563,"x_min":54,"x_max":1487,"o":"m 575 911 l 575 1042 l 1226 1042 l 1226 911 l 1356 911 l 1356 651 l 1226 651 l 1226 521 l 705 521 l 705 391 l 575 391 l 575 0 l 705 0 l 705 -130 l 966 -130 l 966 0 l 705 0 l 705 260 l 836 260 l 836 391 l 1356 391 l 1356 260 l 1487 260 l 1487 -130 l 1356 -130 l 1356 -391 l 1096 -391 l 1096 -521 l 445 -521 l 445 -391 l 184 -391 l 184 -130 l 54 -130 l 54 521 l 184 521 l 184 781 l 315 781 l 315 911 l 575 911 z "},"h":{"ha":1563,"x_min":54,"x_max":1487,"o":"m 184 911 l 184 1042 l 445 1042 l 445 911 l 575 911 l 575 521 l 836 521 l 836 911 l 966 911 l 966 1042 l 1226 1042 l 1226 781 l 1356 781 l 1356 260 l 1487 260 l 1487 -391 l 1356 -391 l 1356 -521 l 1096 -521 l 1096 -391 l 966 -391 l 966 0 l 575 0 l 575 -391 l 445 -391 l 445 -521 l 184 -521 l 184 -391 l 54 -391 l 54 911 l 184 911 z "},"i":{"ha":781,"x_min":54,"x_max":705,"o":"m 184 911 l 184 1042 l 445 1042 l 445 911 l 575 911 l 575 130 l 705 130 l 705 -391 l 575 -391 l 575 -521 l 184 -521 l 184 -391 l 54 -391 l 54 911 l 184 911 z "},"j":{"ha":1172,"x_min":54,"x_max":1096,"o":"m 445 911 l 445 1042 l 836 1042 l 836 781 l 966 781 l 966 521 l 1096 521 l 1096 -260 l 966 -260 l 966 -391 l 836 -391 l 836 -521 l 184 -521 l 184 -391 l 54 -391 l 54 0 l 184 0 l 184 130 l 445 130 l 445 0 l 575 0 l 575 391 l 445 391 l 445 651 l 315 651 l 315 911 l 445 911 z "},"k":{"ha":1432,"x_min":54,"x_max":1356,"o":"m 184 911 l 184 1042 l 445 1042 l 445 911 l 575 911 l 575 521 l 705 521 l 705 781 l 836 781 l 836 1042 l 1226 1042 l 1226 911 l 1356 911 l 1356 651 l 1226 651 l 1226 391 l 1096 391 l 1096 260 l 1226 260 l 1226 0 l 1356 0 l 1356 -391 l 1226 -391 l 1226 -521 l 966 -521 l 966 -391 l 836 -391 l 836 -130 l 705 -130 l 705 -391 l 575 -391 l 575 -521 l 315 -521 l 315 -391 l 184 -391 l 184 260 l 54 260 l 54 911 l 184 911 z "},"l":{"ha":1042,"x_min":54,"x_max":966,"o":"m 445 911 l 445 1042 l 705 1042 l 705 911 l 836 911 l 836 521 l 705 521 l 705 260 l 575 260 l 575 0 l 836 0 l 836 -130 l 966 -130 l 966 -391 l 836 -391 l 836 -521 l 184 -521 l 184 -391 l 54 -391 l 54 260 l 184 260 l 184 651 l 315 651 l 315 911 l 445 911 z "},"m":{"ha":1823,"x_min":54,"x_max":1747,"o":"m 315 911 l 315 1042 l 705 1042 l 705 911 l 836 911 l 836 781 l 966 781 l 966 911 l 1096 911 l 1096 1042 l 1356 1042 l 1356 911 l 1487 911 l 1487 651 l 1617 651 l 1617 130 l 1747 130 l 1747 -391 l 1617 -391 l 1617 -521 l 1356 -521 l 1356 -391 l 1226 -391 l 1226 260 l 1096 260 l 1096 130 l 836 130 l 836 260 l 705 260 l 705 391 l 575 391 l 575 0 l 705 0 l 705 -391 l 575 -391 l 575 -521 l 184 -521 l 184 -391 l 54 -391 l 54 391 l 184 391 l 184 911 l 315 911 z "},"n":{"ha":1693,"x_min":54,"x_max":1617,"o":"m 315 911 l 315 1042 l 705 1042 l 705 911 l 836 911 l 836 651 l 966 651 l 966 260 l 1096 260 l 1096 911 l 1226 911 l 1226 1042 l 1487 1042 l 1487 911 l 1617 911 l 1617 130 l 1487 130 l 1487 -391 l 1356 -391 l 1356 -521 l 966 -521 l 966 -391 l 836 -391 l 836 -130 l 705 -130 l 705 260 l 575 260 l 575 -391 l 445 -391 l 445 -521 l 184 -521 l 184 -391 l 54 -391 l 54 391 l 184 391 l 184 911 l 315 911 z "},"o":{"ha":1563,"x_min":54,"x_max":1487,"o":"m 575 911 l 575 1042 l 966 1042 l 966 911 l 1226 911 l 1226 781 l 1356 781 l 1356 521 l 1487 521 l 1487 -130 l 1356 -130 l 1356 -391 l 1096 -391 l 1096 -521 l 445 -521 l 445 -391 l 184 -391 l 184 -130 l 54 -130 l 54 521 l 184 521 l 184 781 l 315 781 l 315 911 l 575 911 m 836 651 l 575 651 l 575 521 l 445 521 l 445 260 l 575 260 l 575 130 l 836 130 l 836 260 l 966 260 l 966 521 l 836 521 l 836 651 z "},"p":{"ha":1432,"x_min":54,"x_max":1356,"o":"m 184 911 l 184 1042 l 836 1042 l 836 911 l 1096 911 l 1096 781 l 1226 781 l 1226 521 l 1356 521 l 1356 130 l 1226 130 l 1226 0 l 1096 0 l 1096 -130 l 705 -130 l 705 -391 l 575 -391 l 575 -521 l 315 -521 l 315 -391 l 184 -391 l 184 0 l 54 0 l 54 911 l 184 911 m 705 651 l 445 651 l 445 391 l 575 391 l 575 260 l 836 260 l 836 521 l 705 521 l 705 651 z "},"q":{"ha":1693,"x_min":54,"x_max":1617,"o":"m 705 911 l 705 1042 l 1226 1042 l 1226 911 l 1356 911 l 1356 781 l 1487 781 l 1487 130 l 1356 130 l 1356 0 l 1487 0 l 1487 -130 l 1617 -130 l 1617 -391 l 1487 -391 l 1487 -521 l 1226 -521 l 1226 -391 l 966 -391 l 966 -521 l 445 -521 l 445 -391 l 184 -391 l 184 -260 l 54 -260 l 54 391 l 184 391 l 184 651 l 315 651 l 315 781 l 445 781 l 445 911 l 705 911 m 1096 651 l 836 651 l 836 521 l 705 521 l 705 391 l 575 391 l 575 0 l 705 0 l 705 260 l 836 260 l 836 391 l 966 391 l 966 260 l 1096 260 l 1096 651 z "},"r":{"ha":1563,"x_min":54,"x_max":1487,"o":"m 445 911 l 445 1042 l 1226 1042 l 1226 911 l 1356 911 l 1356 781 l 1487 781 l 1487 260 l 1356 260 l 1356 130 l 1226 130 l 1226 0 l 1356 0 l 1356 -130 l 1487 -130 l 1487 -391 l 1356 -391 l 1356 -521 l 966 -521 l 966 -391 l 836 -391 l 836 -260 l 705 -260 l 705 -130 l 575 -130 l 575 -391 l 445 -391 l 445 -521 l 184 -521 l 184 -391 l 54 -391 l 54 260 l 184 260 l 184 651 l 315 651 l 315 911 l 445 911 m 966 651 l 705 651 l 705 521 l 575 521 l 575 260 l 836 260 l 836 391 l 966 391 l 966 651 z "},"s":{"ha":1432,"x_min":54,"x_max":1356,"o":"m 445 911 l 445 1042 l 1096 1042 l 1096 911 l 1226 911 l 1226 651 l 1096 651 l 1096 521 l 836 521 l 836 651 l 705 651 l 705 521 l 836 521 l 836 391 l 1096 391 l 1096 260 l 1226 260 l 1226 130 l 1356 130 l 1356 -260 l 1226 -260 l 1226 -391 l 966 -391 l 966 -521 l 184 -521 l 184 -391 l 54 -391 l 54 0 l 184 0 l 184 130 l 445 130 l 445 0 l 705 0 l 705 130 l 445 130 l 445 260 l 315 260 l 315 391 l 184 391 l 184 781 l 315 781 l 315 911 l 445 911 z "},"t":{"ha":1563,"x_min":54,"x_max":1487,"o":"m 445 911 l 445 1042 l 1356 1042 l 1356 911 l 1487 911 l 1487 651 l 1356 651 l 1356 521 l 1096 521 l 1096 0 l 1226 0 l 1226 -391 l 1096 -391 l 1096 -521 l 705 -521 l 705 -260 l 575 -260 l 575 391 l 445 391 l 445 260 l 184 260 l 184 391 l 54 391 l 54 781 l 184 781 l 184 911 l 445 911 z "},"u":{"ha":1563,"x_min":54,"x_max":1487,"o":"m 184 781 l 184 1042 l 575 1042 l 575 911 l 705 911 l 705 521 l 575 521 l 575 130 l 705 130 l 705 0 l 836 0 l 836 130 l 966 130 l 966 391 l 836 391 l 836 781 l 966 781 l 966 911 l 1226 911 l 1226 781 l 1356 781 l 1356 521 l 1487 521 l 1487 -130 l 1356 -130 l 1356 -391 l 1226 -391 l 1226 -521 l 315 -521 l 315 -391 l 184 -391 l 184 -130 l 54 -130 l 54 781 l 184 781 z "},"v":{"ha":1563,"x_min":54,"x_max":1487,"o":"m 184 911 l 184 1042 l 575 1042 l 575 911 l 705 911 l 705 130 l 836 130 l 836 521 l 966 521 l 966 781 l 1096 781 l 1096 911 l 1356 911 l 1356 781 l 1487 781 l 1487 260 l 1356 260 l 1356 0 l 1226 0 l 1226 -260 l 1096 -260 l 1096 -391 l 966 -391 l 966 -521 l 445 -521 l 445 -391 l 315 -391 l 315 -130 l 184 -130 l 184 391 l 54 391 l 54 911 l 184 911 z "},"w":{"ha":1693,"x_min":54,"x_max":1617,"o":"m 184 911 l 184 1042 l 445 1042 l 445 911 l 575 911 l 575 260 l 705 260 l 705 391 l 966 391 l 966 260 l 1096 260 l 1096 911 l 1226 911 l 1226 1042 l 1487 1042 l 1487 911 l 1617 911 l 1617 130 l 1487 130 l 1487 -260 l 1356 -260 l 1356 -391 l 1226 -391 l 1226 -521 l 966 -521 l 966 -391 l 705 -391 l 705 -521 l 445 -521 l 445 -391 l 315 -391 l 315 -130 l 184 -130 l 184 260 l 54 260 l 54 911 l 184 911 z "},"x":{"ha":1693,"x_min":54,"x_max":1617,"o":"m 315 911 l 315 1042 l 575 1042 l 575 911 l 705 911 l 705 781 l 966 781 l 966 911 l 1096 911 l 1096 1042 l 1356 1042 l 1356 911 l 1487 911 l 1487 651 l 1356 651 l 1356 521 l 1226 521 l 1226 391 l 1356 391 l 1356 260 l 1487 260 l 1487 0 l 1617 0 l 1617 -391 l 1487 -391 l 1487 -521 l 1226 -521 l 1226 -391 l 1096 -391 l 1096 -130 l 966 -130 l 966 0 l 705 0 l 705 -130 l 575 -130 l 575 -391 l 445 -391 l 445 -521 l 184 -521 l 184 -391 l 54 -391 l 54 0 l 184 0 l 184 260 l 315 260 l 315 391 l 445 391 l 445 521 l 315 521 l 315 651 l 184 651 l 184 911 l 315 911 z "},"y":{"ha":1432,"x_min":54,"x_max":1356,"o":"m 966 911 l 966 1042 l 1226 1042 l 1226 911 l 1356 911 l 1356 391 l 1226 391 l 1226 130 l 1096 130 l 1096 -130 l 966 -130 l 966 -391 l 836 -391 l 836 -521 l 575 -521 l 575 -391 l 445 -391 l 445 0 l 575 0 l 575 130 l 445 130 l 445 260 l 315 260 l 315 391 l 184 391 l 184 521 l 54 521 l 54 781 l 184 781 l 184 911 l 575 911 l 575 781 l 705 781 l 705 651 l 836 651 l 836 911 l 966 911 z "},"z":{"ha":1432,"x_min":54,"x_max":1356,"o":"m 315 911 l 315 1042 l 966 1042 l 966 911 l 1226 911 l 1226 521 l 1096 521 l 1096 260 l 966 260 l 966 130 l 836 130 l 836 0 l 1226 0 l 1226 -130 l 1356 -130 l 1356 -391 l 1226 -391 l 1226 -521 l 184 -521 l 184 -391 l 54 -391 l 54 -130 l 184 -130 l 184 130 l 315 130 l 315 260 l 445 260 l 445 391 l 575 391 l 575 521 l 315 521 l 315 651 l 184 651 l 184 911 l 315 911 z "}}}
